# xmcd
#
# Track frame offsets: 
#        160
#        22405
#        54875
#        78570
#        98962
#        127452
#        156010
#        178367
#        195777
#        210830
#        232305
#        255140
#        277910
#
# Disc length: 3996 seconds
#
# Revision: 0
# Processed by: cddbd v1.5.1PL0 Copyright (c) Steve Scherf et al.
# Submitted via: ExactAudioCopy v0.95a3
#
DISCID=b00f9a0d
DTITLE=Николай Караченцев - Сны И Были Николая Караченцева
DYEAR=1995
DGENRE=Pop
TTITLE0=Жёлтый Остров
TTITLE1=Мираж
TTITLE2=Эмиры И Султаны
TTITLE3=Сердце
TTITLE4=Чаша Горькая
TTITLE5=Куда Ты Уходишь, Россия
TTITLE6=И Защебечет Жаворонок Звонко
TTITLE7=Александр Иванович, Скажи...
TTITLE8=В Небо Летело...
TTITLE9=Легенда О Соболиной Охоте
TTITLE10=Дорога В Никуда
TTITLE11=Галатея
TTITLE12=Улетело Птицей
EXTD=
EXTT0=
EXTT1=
EXTT2=
EXTT3=
EXTT4=
EXTT5=
EXTT6=
EXTT7=
EXTT8=
EXTT9=
EXTT10=
EXTT11=
EXTT12=
PLAYORDER=
